<?xml version="1.0" encoding="utf-8"?><!-- Uploaded to: SVG Repo, www.svgrepo.com, Generator: SVG Repo Mixer Tools -->
<svg fill="#000000" width="800px" height="800px" viewBox="0 0 24 24" id="jewelry" data-name="Flat Color" xmlns="http://www.w3.org/2000/svg" class="icon flat-color"><path id="secondary" d="M12,22A8,8,0,0,1,8,7.1,1,1,0,0,1,9,8.82a6,6,0,1,0,6.06,0A1,1,0,0,1,16,7.1,8,8,0,0,1,12,22Z" style="fill: rgb(44, 169, 188);"></path><path id="primary" d="M17.77,5.36l-2.5-3A1,1,0,0,0,14.5,2h-5a1,1,0,0,0-.77.36l-2.5,3a1,1,0,0,0,0,1.24l3.75,5a1,1,0,0,0,.8.4h2.5a1,1,0,0,0,.8-.4l3.75-5A1,1,0,0,0,17.77,5.36Z" style="fill: rgb(0, 0, 0);"></path></svg>