<?xml version="1.0" encoding="iso-8859-1"?>
<!-- Uploaded to: SVG Repo, www.svgrepo.com, Generator: SVG Repo Mixer Tools -->
<svg version="1.1" id="Layer_1" xmlns="http://www.w3.org/2000/svg" xmlns:xlink="http://www.w3.org/1999/xlink" 
	 viewBox="0 0 371 371" xml:space="preserve">
<g>
	<path style="fill:#F38181;" d="M268.5,51.5h-46.095c0.056,0.827,0.095,1.659,0.095,2.5c0,20.158-16.342,36.5-36.5,36.5
		S149.5,74.158,149.5,54c0-0.841,0.039-1.673,0.095-2.5H102.5l-95,109l51,49l44-48v123h166v-123l44,48l51-49L268.5,51.5z"/>
	<rect x="102.5" y="284.5" style="fill:#FCE38A;" width="166" height="35"/>
	<g>
		<path style="fill:#414042;" d="M369.154,155.572l-95-109C272.729,44.938,270.668,44,268.5,44h-46.095
			c-4.343,0-7.773,3.679-7.483,8.003C216.079,69,202.548,83,186,83c-16.587,0-30.076-14.039-28.922-30.997
			c0.29-4.333-3.149-8.003-7.483-8.003H102.5c-2.168,0-4.229,0.938-5.654,2.572l-95,109c-2.628,3.016-2.427,7.564,0.458,10.336
			l51,49c3.048,2.927,7.889,2.754,10.725-0.34L95,180.781c0,6.896,0,132.193,0,138.719c0,4.142,3.357,7.5,7.5,7.5h166
			c4.143,0,7.5-3.358,7.5-7.5c0-6.529,0-131.825,0-138.719c33.512,36.559,31.956,36.079,36.262,36.215
			c2.023,0.054,3.978-0.689,5.435-2.088l51-49C371.581,163.137,371.782,158.588,369.154,155.572z M261,312H110v-20h151V312z
			 M312.841,198.772l-38.813-42.34C269.42,151.403,261,154.675,261,161.5V277H110V161.5c0-6.821-8.419-10.101-13.028-5.068
			l-38.813,42.34l-40.311-38.73L105.912,59h36.37c2.489,21.918,21.145,39,43.718,39s41.229-17.082,43.718-39h35.37l88.063,101.042
			L312.841,198.772z"/>
		<path style="fill:#414042;" d="M243.5,173c-4.143,0-7.5,3.358-7.5,7.5v67c0,4.142,3.357,7.5,7.5,7.5s7.5-3.358,7.5-7.5v-67
			C251,176.358,247.643,173,243.5,173z"/>
	</g>
</g>
</svg>